<svg width="65" height="61" viewBox="0 0 65 61" fill="none" xmlns="http://www.w3.org/2000/svg">
<path d="M0.436089 37.6622H-1.56391V39.6622H0.436089V37.6622ZM0.436089 23.454V21.454H-1.56391V23.454H0.436089ZM25.4001 23.454V25.454H27.4001V23.454H25.4001ZM25.4001 0.481754V-1.51825H23.4001V0.481754H25.4001ZM39.8739 0.481754H41.8739V-1.51825H39.8739V0.481754ZM39.8739 23.454H37.8739V25.454H39.8739V23.454ZM64.7051 23.454H66.7051V21.454H64.7051V23.454ZM64.7051 37.6622V39.6622H66.7051V37.6622H64.7051ZM39.8739 37.6622V35.6622H37.8739V37.6622H39.8739ZM39.8739 60.6344V62.6344H41.8739V60.6344H39.8739ZM25.4001 60.6344H23.4001V62.6344H25.4001V60.6344ZM25.4001 37.6622H27.4001V35.6622H25.4001V37.6622ZM2.43609 37.6622V23.454H-1.56391V37.6622H2.43609ZM0.436089 25.454H25.4001V21.454H0.436089V25.454ZM27.4001 23.454V0.481754H23.4001V23.454H27.4001ZM25.4001 2.48175H39.8739V-1.51825H25.4001V2.48175ZM37.8739 0.481754V23.454H41.8739V0.481754H37.8739ZM39.8739 25.454H64.7051V21.454H39.8739V25.454ZM62.7051 23.454V37.6622H66.7051V23.454H62.7051ZM64.7051 35.6622H39.8739V39.6622H64.7051V35.6622ZM37.8739 37.6622V60.6344H41.8739V37.6622H37.8739ZM39.8739 58.6344H25.4001V62.6344H39.8739V58.6344ZM27.4001 60.6344V37.6622H23.4001V60.6344H27.4001ZM25.4001 35.6622H0.436089V39.6622H25.4001V35.6622Z" fill="white"/>
</svg>
